<?xml version="1.0" encoding="utf-8"?>
<!-- Generator: Adobe Illustrator 24.1.1, SVG Export Plug-In . SVG Version: 6.00 Build 0)  -->
<svg version="1.1" id="Layer_1" xmlns="http://www.w3.org/2000/svg" xmlns:xlink="http://www.w3.org/1999/xlink" x="0px" y="0px"
	 viewBox="0 0 512 512" style="enable-background:new 0 0 512 512;" xml:space="preserve">
<g>
	<path d="M85.33,110.93h388.15l-43.32,187.73l-293.63,0c-9.43,0-17.07,7.64-17.07,17.07c0,9.43,7.64,17.07,17.07,17.07l307.2,0
		c7.94,0,14.84-5.5,16.63-13.23l51.2-221.87c1.17-5.05-0.05-10.41-3.27-14.46c-3.23-4.06-8.17-6.44-13.36-6.44H85.33
		c-9.43,0-17.07,7.64-17.07,17.07C68.27,103.29,75.91,110.93,85.33,110.93L85.33,110.93z M443.74,366.93H167.08L84.87,21.65
		c-1.83-7.67-8.72-13.11-16.6-13.11h-51.2C7.64,8.53,0,16.17,0,25.6c0,9.43,7.64,17.07,17.07,17.07l37.72,0L137,387.95
		c1.83,7.67,8.72,13.11,16.6,13.11h290.14c9.43,0,17.07-7.64,17.07-17.07C460.8,374.58,453.16,366.93,443.74,366.93L443.74,366.93z"
		/>
	<path d="M409.6,418.13v17.07c9.42,0.02,17.05,7.65,17.07,17.07c-0.02,9.42-7.65,17.05-17.07,17.07
		c-9.42-0.02-17.05-7.65-17.07-17.07c0.02-9.42,7.65-17.05,17.07-17.07V418.13v-17.07c-28.28,0.01-51.19,22.92-51.2,51.2
		c0.01,28.28,22.92,51.19,51.2,51.2c28.28-0.01,51.19-22.92,51.2-51.2c-0.01-28.28-22.92-51.19-51.2-51.2V418.13z"/>
	<path d="M187.73,418.13v17.07c9.42,0.02,17.05,7.65,17.07,17.07c-0.02,9.42-7.65,17.05-17.07,17.07
		c-9.42-0.02-17.05-7.65-17.07-17.07c0.02-9.42,7.65-17.05,17.07-17.07V418.13v-17.07c-28.28,0.01-51.19,22.92-51.2,51.2
		c0.01,28.28,22.92,51.19,51.2,51.2c28.28-0.01,51.19-22.92,51.2-51.2c-0.01-28.28-22.92-51.19-51.2-51.2V418.13z"/>
</g>
</svg>
